<svg class="diagram-root" style="background: #f5f6f6" xmlns="http://www.w3.org/2000/svg" xmlns:xlink="http://www.w3.org/1999/xlink"><style>.diagram-root { font-family: "Helvetica Neue", sans-serif; font-size: 12px; } .t { overflow: visible; } .t-bg { y: 40; fill: #fff;   } .th { fill: #005aa0;   } .tht { fill: #fff; font-size: 14px;  } .tf { fill: #323c46; overflow: visible; } .tf.pk { fill: #005aa0; font-weight: bold; } .tf.fk { font-weight: bold; } .ty { fill: #adb1b5; font-weight: normal; text-anchor: end; } .r { fill: transparent; stroke: #c3c3c3; stroke-width: 1; } .l { stroke: 1; } .i { fill: #c2c7ce; stroke: #c2c7ce; } .i.ix { fill: #afb3b6; stroke: #000; } .fa { fill: transparent; overflow: visible; } .fa .bg.hover { fill: #f7f7f7; } .c { cy: 12; r: 4; stroke: #d2d2dc; fill: #d2d2dc; } .hr { fill: transparent; stroke: #323c46; stroke-opacity: 0.035; stroke-width: 13; } .dc { stroke: #fa5a3c; fill: #fa5a3c; } .x { stroke: white; stroke-width: 1; } .hl .th { fill: #1b9bff; } .hl .tht {  } .fhl .bg { fill: #e7f4ff; } .fhls .bg {  } .r.hl { stroke: #1b9bff; } .dim { opacity: 0.25; }</style><g class="drawing-wrapper" transform="translate(-58, -16) scale(1,1)"><g class="rs"><path d="M 371 214 m -1, 0 a 1,1 0 1,0 2,0 a 1,1 0 1,0 -2,0 M 371 214 m -0.5, 0 a 0.5,0.5 0 1,0 1,0 a 0.5,0.5 0 1,0 -1,0  M371 214 L371 214 359 214 M 371 220 m -1, 0 a 1,1 0 1,0 2,0 a 1,1 0 1,0 -2,0 M 371 220 m -0.5, 0 a 0.5,0.5 0 1,0 1,0 a 0.5,0.5 0 1,0 -1,0  M371 220 L371 220 364 214 371 208 M 371 208 m -1, 0 a 1,1 0 1,0 2,0 a 1,1 0 1,0 -2,0 M 371 208 m -0.5, 0 a 0.5,0.5 0 1,0 1,0 a 0.5,0.5 0 1,0 -1,0  M359 214 Q 332.43 214, 305.86 158.5 T 252.71 103 M 240.71 103 m -1, 0 a 1,1 0 1,0 2,0 a 1,1 0 1,0 -2,0 M 240.71 103 m -0.5, 0 a 0.5,0.5 0 1,0 1,0 a 0.5,0.5 0 1,0 -1,0  M240.71 103 L240.71 103 252.71 103 M246.71 109 L246.71 109 246.71 97" id="h3987457264" class="r"></path><path d="M 647 307 m -1, 0 a 1,1 0 1,0 2,0 a 1,1 0 1,0 -2,0 M 647 307 m -0.5, 0 a 0.5,0.5 0 1,0 1,0 a 0.5,0.5 0 1,0 -1,0  M647 307 L647 307 635 307 M 647 313 m -1, 0 a 1,1 0 1,0 2,0 a 1,1 0 1,0 -2,0 M 647 313 m -0.5, 0 a 0.5,0.5 0 1,0 1,0 a 0.5,0.5 0 1,0 -1,0  M647 313 L647 313 640 307 647 301 M 647 301 m -1, 0 a 1,1 0 1,0 2,0 a 1,1 0 1,0 -2,0 M 647 301 m -0.5, 0 a 0.5,0.5 0 1,0 1,0 a 0.5,0.5 0 1,0 -1,0  M635 307 Q 610.52 307, 586.03 248 T 537.05 189 M 525.05 189 m -1, 0 a 1,1 0 1,0 2,0 a 1,1 0 1,0 -2,0 M 525.05 189 m -0.5, 0 a 0.5,0.5 0 1,0 1,0 a 0.5,0.5 0 1,0 -1,0  M525.05 189 L525.05 189 537.05 189 M531.05 195 L531.05 195 531.05 183" id="h2855658443" class="r"></path></g><g class="hrs"></g><g class="ts"><svg width="160.71" height="150" x="80" y="46" id="h3889921393" class="t"><rect height="40" width="160.71" class="th"></rect><text x="13" y="25" class="tht">Users</text><rect height="110" width="160.71" class="t-bg"></rect><text x="13" y="61" class="tf pk">user_id<tspan x="147.71" class="ty">serial</tspan></text><path d="M7,14A2,2 0 0,1 5,12A2,2 0 0,1 7,10A2,2 0 0,1 9,12A2,2 0 0,1 7,14M12.65,10C11.83,7.67 9.61,6 7, 6A6, 6 0 0, 0 1, 12A6, 6 0 0, 0 7, 18C9.61, 18 11.83, 16.33 12.65, 14H17V18H21V14H23V10H12.65Z" class="i pk" transform="translate(99.03421875000001, 48) scale(0.65)"></path><text x="13" y="86" class="tf">username<tspan x="147.71" class="ty">varchar(50)</tspan></text><text x="13" y="111" class="tf">email<tspan x="147.71" class="ty">varchar(50)</tspan></text><path d="M22,18V22H18V19H15V16H12L9.74,13.74C9.19,13.91 8.61,14 8,14A6,6 0 0,1 2,8A6,6 0 0,1 8,2A6,6 0 0,1 14,8C14,8.61 13.91, 9.19 13.74, 9.74L22, 18M7, 5A2, 2 0 0, 0 5, 7A2, 2 0 0, 0 7, 9A2, 2 0 0, 0 9, 7A2, 2 0 0, 0 7, 5Z" class="i uq" transform="translate(70.35648437500001, 100.5) scale(0.5)"></path><text x="13" y="136" class="tf">password<tspan x="147.71" class="ty">text</tspan></text></svg><svg width="154.05" height="150" x="371" y="132" id="h1247347136" class="t"><rect height="40" width="154.05" class="th"></rect><text x="13" y="25" class="tht">QR_Codes</text><rect height="110" width="154.05" class="t-bg"></rect><text x="13" y="61" class="tf pk">qr_code_id<tspan x="141.05" class="ty">serial</tspan></text><path d="M7,14A2,2 0 0,1 5,12A2,2 0 0,1 7,10A2,2 0 0,1 9,12A2,2 0 0,1 7,14M12.65,10C11.83,7.67 9.61,6 7, 6A6, 6 0 0, 0 1, 12A6, 6 0 0, 0 7, 18C9.61, 18 11.83, 16.33 12.65, 14H17V18H21V14H23V10H12.65Z" class="i pk" transform="translate(92.37421875000001, 48) scale(0.65)"></path><text x="13" y="86" class="tf fk">user_id<tspan x="141.05" class="ty">int</tspan></text><text x="13" y="111" class="tf">title<tspan x="141.05" class="ty">varchar(20)</tspan></text><text x="13" y="136" class="tf">description<tspan x="141.05" class="ty">text</tspan></text></svg><svg width="200.31" height="150" x="647" y="225" id="h2761734524" class="t"><rect height="40" width="200.31" class="th"></rect><text x="13" y="25" class="tht">QR_Code_Usage_Statistics</text><rect height="110" width="200.31" class="t-bg"></rect><text x="13" y="61" class="tf pk">usage_id<tspan x="187.31" class="ty">serial</tspan></text><path d="M7,14A2,2 0 0,1 5,12A2,2 0 0,1 7,10A2,2 0 0,1 9,12A2,2 0 0,1 7,14M12.65,10C11.83,7.67 9.61,6 7, 6A6, 6 0 0, 0 1, 12A6, 6 0 0, 0 7, 18C9.61, 18 11.83, 16.33 12.65, 14H17V18H21V14H23V10H12.65Z" class="i pk" transform="translate(138.63421875, 48) scale(0.65)"></path><text x="13" y="86" class="tf fk">qr_code_id<tspan x="187.31" class="ty">int</tspan></text><text x="13" y="111" class="tf">scan_timestamp<tspan x="187.31" class="ty">timestamp</tspan></text><text x="13" y="136" class="tf">scanned_by<tspan x="187.31" class="ty">varchar(100)</tspan></text></svg></g></g><text class="qdbd-link" x="10" y="20">www.quickdatabasediagrams.com</text></svg>